<?xml version="1.0" encoding="UTF-8" standalone="no"?>
<svg
   xmlns:dc="http://purl.org/dc/elements/1.1/"
   xmlns:cc="http://creativecommons.org/ns#"
   xmlns:rdf="http://www.w3.org/1999/02/22-rdf-syntax-ns#"
   xmlns:svg="http://www.w3.org/2000/svg"
   xmlns="http://www.w3.org/2000/svg"
   viewBox="0 0 1026.912 864.5213"
   height="32"
   width="38"
   xml:space="preserve"
   id="svg2"
   version="1.1"><metadata
     id="metadata8"><rdf:RDF><cc:Work
         rdf:about=""><dc:format>image/svg+xml</dc:format><dc:type
           rdf:resource="http://purl.org/dc/dcmitype/StillImage" /></cc:Work></rdf:RDF></metadata><defs
     id="defs6"><clipPath
       id="clipPath18"
       clipPathUnits="userSpaceOnUse"><path
         id="path16"
         d="M 0,648.391 H 770.184 V 0 H 0 Z" /></clipPath></defs><g
     transform="matrix(1.3333333,0,0,-1.3333333,0,864.52133)"
     id="g10"><g
       id="g12"><g
         clip-path="url(#clipPath18)"
         id="g14"><g
           transform="translate(745.9768,548.7367)"
           id="g20"><path
             id="path22"
             style="fill:#fc5095;fill-opacity:1;fill-rule:nonzero;stroke:none"
             d="m 0,0 c -30.163,50.688 -62.208,70.67 -92.538,84.753 -30.62,14.218 -83.333,22.402 -134.399,5.228 -68.909,-23.175 -133.948,-108.892 -133.948,-108.892 0,0 -65.038,85.717 -133.948,108.892 -51.065,17.174 -103.778,8.99 -134.399,-5.228 C -659.562,70.67 -691.607,50.688 -721.77,0 c 0,0 -36.495,-54.604 -19.864,-139.35 0,0 5.428,-42.306 40.515,-88.181 35.087,-45.874 265.404,-291.539 265.404,-291.539 0,0 28.048,-29.666 74.83,-29.666 46.782,0 74.423,33.39 74.423,33.39 0,0 230.725,241.941 265.812,287.815 35.086,45.875 40.514,88.181 40.514,88.181 C 36.495,-54.604 0,0 0,0" /></g></g></g></g></svg>