<?xml version="1.0" encoding="UTF-8" standalone="no"?>
<svg
   xmlns:dc="http://purl.org/dc/elements/1.1/"
   xmlns:cc="http://creativecommons.org/ns#"
   xmlns:rdf="http://www.w3.org/1999/02/22-rdf-syntax-ns#"
   xmlns:svg="http://www.w3.org/2000/svg"
   xmlns="http://www.w3.org/2000/svg"
   viewBox="0 0 478.02133 586.66669"
   height="40"
   width="30"
   xml:space="preserve"
   id="svg2"
   version="1.1"><metadata
     id="metadata8"><rdf:RDF><cc:Work
         rdf:about=""><dc:format>image/svg+xml</dc:format><dc:type
           rdf:resource="http://purl.org/dc/dcmitype/StillImage" /></cc:Work></rdf:RDF></metadata><defs
     id="defs6"><clipPath
       id="clipPath18"
       clipPathUnits="userSpaceOnUse"><path
         id="path16"
         d="M 0,440 H 358.516 V 0 H 0 Z" /></clipPath></defs><g
     transform="matrix(1.3333333,0,0,-1.3333333,0,586.66667)"
     id="g10"><g
       id="g12"><g
         clip-path="url(#clipPath18)"
         id="g14"><g
           transform="translate(179.2578,213.1001)"
           id="g20"><path
             id="path22"
             style="fill:#ffffff;fill-opacity:1;fill-rule:nonzero;stroke:none"
             d="m 0,0 c -59.158,0 -84.628,80.045 -79.546,105.039 65.035,56.563 122.614,52.656 122.614,52.656 0,0 10.323,-32.059 36.873,-70.74 C 75.275,48.829 36.647,0 0,0 m 0.034,-97.504 -62.152,31.666 32.238,50.824 C -21.14,-19.472 -9.625,-22 0,-22 c 9.664,0 20.979,2.578 29.75,7.073 l 32.157,-50.925 z m 178.747,-76.438 c -0.585,3.45 -1.193,6.896 -1.823,10.347 -7.226,39.39 -19.038,102.017 -64.124,135.877 3.326,22.054 5.029,56.337 5.029,107.331 C 117.863,161.018 65.074,226.9 0,226.9 c -44.375,0 -72.592,-31.445 -72.592,-31.445 -27.487,-27.001 -45.271,-68.793 -45.271,-116.003 0,-50.848 1.779,-85.142 5.019,-107.114 -45.29,-33.525 -56.883,-96.658 -64.115,-136.072 -0.628,-3.442 -1.236,-6.89 -1.821,-10.334 -3.093,-18.203 9.156,-35.461 27.355,-38.554 1.896,-0.322 3.777,-0.479 5.638,-0.479 l 116.984,0.031 0.003,0.023 174.585,0.078 c 1.859,0 3.743,0.153 5.636,0.479 18.201,3.09 30.451,20.345 27.36,38.548" /></g></g></g></g></svg>