<?xml version="1.0" encoding="UTF-8" standalone="no"?>
<svg
   xmlns:dc="http://purl.org/dc/elements/1.1/"
   xmlns:cc="http://creativecommons.org/ns#"
   xmlns:rdf="http://www.w3.org/1999/02/22-rdf-syntax-ns#"
   xmlns:svg="http://www.w3.org/2000/svg"
   xmlns="http://www.w3.org/2000/svg"
   viewBox="0 0 47 69"
   height="40"
   width="30"
   xml:space="preserve"
   id="svg2"
   version="1.1"><metadata
     id="metadata8"><rdf:RDF><cc:Work
         rdf:about=""><dc:format>image/svg+xml</dc:format><dc:type
           rdf:resource="http://purl.org/dc/dcmitype/StillImage" /></cc:Work></rdf:RDF></metadata><defs
     id="defs6"><clipPath
       id="clipPath18"
       clipPathUnits="userSpaceOnUse"><path
         id="path16"
         d="M 0,45.682 H 35.943 V 0 H 0 Z" /></clipPath></defs><g
     transform="matrix(1.3333333,0,0,-1.3333333,0,60.909333)"
     id="g10"><g
       id="g12"><g
         clip-path="url(#clipPath18)"
         id="g14"><g
           transform="translate(18.0851,20.285)"
           id="g20"><path
             id="path22"
             style="fill:#ffffff;fill-opacity:1;fill-rule:nonzero;stroke:none"
             d="m 0,0 c -4.647,0 -8.389,6.31 -8.389,11.535 0,0.716 0.023,1.38 0.067,1.996 6.797,-0.297 10.817,2.428 13.005,4.792 2.075,-2.068 3.153,-4.68 3.704,-6.619 0,-0.056 10e-4,-0.111 10e-4,-0.168 C 8.389,6.31 4.647,0 0,0 m 9.147,5.718 c 1.212,0.259 2.329,1.26 2.511,3.48 0.15,1.817 -0.316,2.753 -1.004,3.23 1.909,7.785 -3.358,9.309 -3.358,9.309 0,0 -3.937,6.679 -11.618,1.992 -0.977,-0.596 -2.496,-1.738 -3.401,-2.917 -1.453,-1.546 -2.442,-4.059 -2.597,-8.129 -0.938,-0.358 -1.675,-1.264 -1.492,-3.484 0.192,-2.321 1.403,-3.309 2.677,-3.511 1.72,-4.189 5.116,-7.641 9.135,-7.641 4.028,0 7.431,3.468 9.147,7.671" /></g><g
           transform="translate(15.423,12.3846)"
           id="g24"><path
             id="path26"
             style="fill:#ffffff;fill-opacity:1;fill-rule:nonzero;stroke:none"
             d="M 0,0 0.538,2.228 C 0.6,2.484 0.733,2.704 0.913,2.873 0.858,2.912 0.804,2.953 0.751,2.996 L -4.055,6.976 -6.98,6.292 c -4.953,-1.166 -8.443,-5.349 -8.443,-10.146 v -6.3 c 0,-1.241 1.103,-2.23 2.423,-2.23 H -0.619 L 1.269,-1.622 C 0.421,-1.61 -0.2,-0.827 0,0" /></g><g
           transform="translate(27.5509,18.6761)"
           id="g28"><path
             id="path30"
             style="fill:#ffffff;fill-opacity:1;fill-rule:nonzero;stroke:none"
             d="m 0,0 -2.885,0.684 -4.801,-3.979 c -0.053,-0.043 -0.105,-0.084 -0.16,-0.123 0.181,-0.169 0.314,-0.389 0.377,-0.646 l 0.537,-2.228 c 0.202,-0.826 -0.42,-1.61 -1.269,-1.623 l 1.889,-10.761 h 12.38 c 1.32,0 2.324,0.988 2.324,2.229 v 6.3 C 8.395,-5.348 4.953,-1.165 0,0" /></g></g></g></g></svg>